<svg height="310" viewBox="0 0 224 310" width="224" xmlns="http://www.w3.org/2000/svg"><g fill="none"><path d="m118.4908 89.5334c.7802 3.3772-1.3002 7.0144-4.9412 7.7938l-84.5198 20.7836c-3.6408.7794-7.2816-1.299-8.0618-4.6762l-20.8049554-84.6934c-.7801826-3.3774 1.3003054-7.0146 4.9411554-7.794l84.5198-20.7835928c3.641-.7793872 7.2818 1.2989868 8.062 4.6763328z" fill="#90a4ae" transform="matrix(-1 0 0 1 176.934 98.86)"/><g transform="matrix(-1 0 0 1 150.244 213.42)"><path d="m46.0308 3.28912v1.03918c.26 6.7547.26 40.7879-2.6006 64.9489-.26 1.0392-.26 1.8186-.26 2.8578v.5196c-.5202 2.8578-.7802 5.7154-1.3004 8.3134-.26.7794-.26 1.299-.52 2.0784-1.0404 4.4166-2.0806 7.7938-3.3808 9.8722-.2602.2598-.2602.5196-.5202.7794-.7802 1.0392-1.5604 1.5588-2.3406 1.5588-.26 0-.7802 0-1.0402 0s-.5202 0-.7802 0-.52 0-1.0402-.2598c-.26 0-.5202-.2598-.7802-.2598-1.0402-.5196-2.0804-1.0392-2.8606-1.8186-.2602-.2598-.7802-.5196-1.0404-.7794-.52-.5196-.7802-.7794-1.3002-1.299-.5202-.5194-.7802-1.0392-1.3004-1.5586-.7802-1.0392-1.5604-2.3382-2.3404-3.3774-.2602-.5196-.7802-1.299-1.0404-2.0784-1.5602-2.598-2.8606-5.7156-4.42096-9.0928-.26006-.5196-.52012-1.0392-.52012-1.5588-.26006-.2598-.26008-.7794-.52014-1.0392-.26006-.7794-.52012-1.299-.78018-2.0784-8.32194-21.8228-14.303358-51.95914-15.34360198-68.845858 0-.519592 45.51060198-3.377342 46.03080198 2.078378z" fill="#cfd8dc"/><path d="m43.4302 69.2772c-.1733333 1.2124-.26 2.165-.26 2.8578v.5196c-.5202 2.8578-.7802 5.7154-1.3004 8.3134-.26.7794-.26 1.299-.52 2.0784-1.0404 4.4166-2.0806 7.7938-3.3808 9.8722-.2602.2598-.2602.5196-.5202.7794-.7802 1.0392-1.5604 1.5588-2.3406 1.5588-.26 0-.7802 0-1.0402 0s-.5202 0-.7802 0-.52 0-1.0402-.2598c-.26 0-.5202-.2598-.7802-.2598-1.0402-.5196-2.0804-1.0392-2.8606-1.8186-.2602-.2598-.7802-.5196-1.0404-.7794-.52-.5196-.7802-.7794-1.3002-1.299-.5202-.5194-.7802-1.0392-1.3004-1.5586-.7802-1.0392-1.5604-2.3382-2.3404-3.3774-.2602-.5196-.7802-1.299-1.0404-2.0784-1.5602-2.598-2.8606-5.7156-4.42096-9.0928-.26006-.5196-.52012-1.0392-.52012-1.5588-.26006-.2598-.26008-.7794-.52014-1.0392-.1733733-.5196-.4334333-1.2124-.78018-2.0784z" fill="#263238"/></g><path d="m30.2348 4.35158c-.2602.51958-.5202 1.0392-1.3004 1.0392-.26 0-.52 0-.52 0h-.2602c-2.8606-.7794-6.2414-1.299-9.62222-1.5588-2.08048-.25978-4.16098 0-6.24146 0-3.3808.2598-6.76158.7794-9.88232 1.5588h-.26006c-1.040244.2598-1.820426-.2598-2.0804864-1.29898-.2600612-.77938.2600544-1.81858 1.0402384-2.07838 3.380788-1.039178 7.021648-1.558762 10.662508-1.8185574 2.34056-.2597956 4.6811-.2597956 7.02164 0 3.64096.2597954 7.02176.7793794 9.88236 1.8185574h.26c1.0402.5196 1.5604 1.55876 1.3004 2.33816z" fill="#e64a19" transform="matrix(-1 0 0 1 135.75 280.68)"/><path d="m16.6838597 67.0272c-.26008.5196-.52014 1.0392-1.30032 1.0392-.26006 0-.52012 0-.52012 0-.52012 2.8578-.78018 5.7156-1.3003 8.3136-.26006.7794-.26006 1.299-.52012 2.0784-1.04026 4.4164-2.0805 7.7938-3.38079997 9.8722-.26006.2598-.26006.5196-.52012.7794-.7802 1.039-1.56036 1.5588-2.34056 1.5588-.26006 0-.78018 0-1.04024 0s-.52012 0-.78018 0-.52012 0-1.04024-.26c-.26006 0-.52012-.2596-.78018-.2596-1.040254-.5196-2.080494-1.0392-2.86067801-1.8186 1.82042801-5.4558 3.38079801-12.9898 4.42103801-21.563 0-.5196.26006-1.0392.26006-1.5588s0-1.299.26006-1.8186c2.08048-18.4456 2.34056-41.3076.26006-61.831426 5.20121997-.519592 8.58201997-.779382 12.22287997-1.55877004.26006 6.75469604.26006 40.78799604-2.60062 64.94899604h.26006c1.04024.2598 1.56038 1.2988 1.30032 2.0782z" fill="#212121" opacity=".2" transform="matrix(-1 0 0 1 121.898 218.02)"/><g transform="matrix(-1 0 0 1 101.97 192.04)"><path d="m58.3504 68.8458c0 .7794.26 1.5588.26 2.0784v1.0392.2598c0 .7794.26 1.5588.26 2.3382s0 1.299.26 2.0784c.2602 5.9752.2602 11.1712-.78 15.068 0 .5196-.2602 1.0392-.5202 1.5588s-.26 1.0392-.5202 1.8186c-.26.5196-.26.7794-.52 1.299-.2602.5196-.5202.7794-.7802 1.0392s-.5202.5196-.7802.7794-.5202.5196-.7802.7794-.5202.5196-.7802.5196c-.26.2598-.5202.2598-.7802.5196-.5202.2598-1.0402.2598-1.5604 0-.26 0-.26 0-.52 0-.7802-.2598-1.8204-.7794-2.8608-1.5588-.26-.2598-.52-.5196-.7802-.5196-.78-.7794-1.5602-1.299-2.6006-2.3382-.52-.5196-1.0402-1.299-1.8204-2.0784-1.3002-1.299-2.6006-3.1174-3.9008-4.6762-.5202-.7794-1.3004-1.8186-2.0806-2.598-.52-.7794-1.3002-1.5588-1.8204-2.598 0-.2598-.26-.2598-.26-.5196-.5202-.7794-1.0404-1.5588-1.5604-2.3382-13.78326-20.264-29.38692-49.8808-32.507662-56.1158-.26006-.5196-.260052-.7794-.5201142-1.0392-1.5603658-3.3774 16.1237962-12.47018 28.0865762-18.44548 6.2414-3.11756 11.1826-5.19591604 11.1826-5.19591604 7.2818 16.10733604 16.1238 45.72399604 18.9846 68.84579604z" fill="#cfd8dc"/><path d="m58.3504 68.8458c.1733333 1.0392.26 1.732.26 2.0784v1.0392.2598c0 .7794.26 1.5588.26 2.3382s0 1.299.26 2.0784c.2602 5.9752.2602 11.1712-.78 15.068 0 .5196-.2602 1.0392-.5202 1.5588s-.26 1.0392-.5202 1.8186c-.26.5196-.26.7794-.52 1.299-.2602.5196-.5202.7794-.7802 1.0392s-.5202.5196-.7802.7794-.5202.5196-.7802.7794-.5202.5196-.7802.5196c-.26.2598-.5202.2598-.7802.5196-.5202.2598-1.0402.2598-1.5604 0-.26 0-.26 0-.52 0-.7802-.2598-1.8204-.7794-2.8608-1.5588-.26-.2598-.52-.5196-.7802-.5196-.78-.7794-1.5602-1.299-2.6006-2.3382-.52-.5196-1.0402-1.299-1.8204-2.0784-1.3002-1.299-2.6006-3.1174-3.9008-4.6762-.5202-.7794-1.3004-1.8186-2.0806-2.598-.52-.7794-1.3002-1.5588-1.8204-2.598 0-.1732-.0866667-.3464-.26-.5196 1.4282733-1.9022714 3.85501-3.8874396 7.2802101-5.9555046s8.8869967-4.8458302 16.3853899-8.3332954z" fill="#263238"/></g><path d="m27.4364 1.558758c.2602.779382-.52 1.818602-1.3002 1.818602h-.2602c-2.0804.5196-4.421 1.03918-6.7615 1.81856-1.04024.5196-2.34056.77938-3.3808 1.29898-4.94116 2.33816-9.62226 5.1959-13.00306 8.31346l-.26006.2598c-.26006.2598-.26006.25978-.52012.25978-.520122.2598-1.300312 0-1.560372-.51958-.5201226-.7794-.5201226-1.81856 0-2.33816l.260066-.2598c3.640866-3.37734 8.321966-6.49488 13.523186-8.83304 1.3003-.5196 2.6006-1.0392 3.90092-1.55879 2.34054-.779388 4.94114-1.558766 7.28174-1.81856207 1.0402 0 1.8204.77936407 2.0804 1.55875007z" fill="#e64a19" transform="matrix(-1 0 0 1 69.236 260.62)"/><path d="m92.4294 78.718c.5202 1.8186-3.6408 4.9362-9.6222 8.0538-9.8824 5.4556-24.7058 11.431-30.1672 13.2496-.7802.2598-1.3002.5196-1.5602.5196-.5202 0-1.0404.2598-1.5604.2598-.7802.2598-1.8204.2598-3.1208.5196-.5202 0-1.0402 0-1.5604.2598-2.0804.2596-4.421.5196-6.7616.7792-.26 0-.52 0-.7802 0-13.5232 1.299-31.98746 1.8186-33.0277-1.8184 0-.5196-.26006-1.5588-.52012-2.8578-.52012-2.3382-1.04024-5.7156-1.56038-10.132-.260052-1.0392-.26005-2.0784-.52011-3.3774v-.2598c0-.5196-.260062-1.0392-.260062-1.5588 0-1.0392-.260062-2.0784-.260062-3.3774 0-.5196-.000002-1.039-.260062-1.5586v-.2598c0-1.0392-.260062-2.0784-.260062-3.1176s-.260058-2.3382-.260058-3.3774c-.2600612-4.4166-.5201232-9.3526-.2600622-14.029 0-.2598 0-.5196 0-.7794 0 0 0 0 0-.2598 0 0 0 0 0-.2598 0-.5196 0-.7794 0-1.2988 0-.2598 0-.7794 0-1.0392 0 0 0 0 0-.2598 0-1.0392.000001-2.0784.2600622-3.3774.260062-5.9754 1.040244-11.9506 2.340556-17.6662.26006-1.299.52012-2.5978 1.04024-3.8968 2.86066-10.91148 8.0619-20.00434 16.64382-24.68066 1.8206-1.03918 3.901-1.818554 6.2416-2.338146 2.0804-.51959 4.161-.779394 6.2414-.779394 10.1424 0 18.9844 5.9753 27.0464 14.54856 0 0 .26.2598.26.5196 2.3406 2.33816 4.421 4.93604 6.2416 7.79384 2.0804 2.8578 3.9008 5.7156 5.7212 8.833.5202.7794.7802 1.5588 1.3004 2.0784 0 .2598.26.2598.26.5196 0 0 .26.2598.26.5196s.2602.5196.2602.5196c.52.7794 1.0402 1.8186 1.5604 2.8578 0 0-.0002.2598.26.2598.52.7794.7802 1.5588 1.3002 2.3382 1.8204 3.3772 3.3808 6.7546 4.6812 9.8722.52 1.0392 1.0402 2.0784 1.3002 3.1174.5202 1.0392.7802 1.8186 1.3004 2.8578v.2598c0 .2598.26.5196.26.7794.7802 1.8186 1.3004 3.3774 2.0806 5.196v.2598c.52 1.0392.7802 2.0784 1.0402 2.8578 1.5604 3.8968 2.6006 7.0144 3.1208 9.3526.78 1.8186 1.0402 2.8578 1.3002 3.3772z" fill="#cfd8dc" transform="matrix(-1 0 0 1 153.474 116.94)"/><path d="m47.2804 22.7046c-4.681 1.0392-37.70884 4.6762-46.290852 1.299-.780184-.2598-1.300304-1.299-.780182-2.0784.260062-.7794 1.300304-1.299 2.080494-.7794 7.2817 2.8578 39.00914 0 44.21034-1.299 5.2012-1.29898 34.5882-13.24958 39.7894-19.224886.5202-.7793862 1.5604-.7793822 2.3406-.25979.7802.51959.7802 1.558778.26 2.338156-5.9814 6.7547-36.9286 18.96512-41.6098 20.00432z" fill="#e64a19" transform="matrix(-1 0 0 1 153.574 180.24)"/><path d="m118.747 45.6844-117.027538 28.8372c-7.541782-31.1754 10.402458-62.35088 40.569538-71.70354 1.0402-.51958 2.3406-.77938 3.3808-1.039182 16.644-4.156738 33.2878-.779384 46.551 7.534082 3.1206 2.07836 6.2414 4.41652 9.102 7.01448 1.8204 1.55876 3.641 3.37734 5.2012 5.45576 3.901 4.6762 7.0218 9.8722 9.3622 15.3278 1.0404 2.598 2.0806 5.4558 2.8608 8.5734z" fill="#cfd8dc" transform="matrix(-1 0 0 1 177.97 98.02)"/><path d="m102.4802 37.1728c0 3.6372-.78 7.2742-2.0804 11.1712 0 .2598-.26.5196-.26.7794v.2598c-.2602.5196-.2602.7794-.5202 1.299-.7802 1.8186-1.5604 3.637-2.6006 5.4556-.26.5196-.5202.7794-.7802 1.0392-.52 1.0392-1.3002 2.0784-1.8204 3.1176l-68.136 16.8868c-2.0804-.5196-3.901-1.299-5.7214-1.8186h-.26c-.26 0-.7802-.2598-1.04026-.5196-2.6006-1.0392-4.94116-2.3382-6.76158-3.6372-.26006 0-.26006-.2598-.52012-.2598s-.26006-.2598-.52012-.2598c-3.12074-2.3382-5.72136-4.936-7.54178-7.534-3.640854-5.7156-4.681102-12.2104-3.380796-18.9652.260062-.7794.260064-1.8186.520124-2.5978 1.040252-4.4166 3.120732-8.8332 5.721352-12.9898 7.54176-11.95068 20.02478-22.6023 32.50758-26.49922.7802-.259804 1.5604-.519608 2.6006-.779404.7802-.259796 1.8204-.519584 2.6006-.519584 13.2632-2.33816 28.3468.519576 40.0494 7.534068.5202.25978.7802.5196 1.3004.77938 2.3406 1.55878 4.681 3.37734 6.7616 5.45572 1.3002 1.29898 2.6006 2.85776 3.9008 4.41654.2602.25978.5202.51958.5202.77936 3.6408 4.67634 5.7214 10.65174 5.4612 17.40634z" fill="#cfd8dc" transform="matrix(-1 0 0 1 173.926 98.74)"/><path d="m110.786 28.1598-1.5604 2.8578-5.2012 9.6124-1.5604 2.8578c-.52-.2598-1.0402-.5196-1.5602-.7794-3.641-1.5588-8.5822-2.8578-11.7028-4.1568-6.5016-2.338-17.9442-1.5586-24.1858-.2598-1.3002.2598-2.6006.5196-3.6408 1.0392-1.5604.5196-2.8606 1.0392-4.161 1.5588-2.3406 1.0392-4.421 2.598-6.2414 3.897-1.8204 1.5588-3.1208 3.1176-3.6408 4.6764-1.0404 2.338-2.0806 3.3772-3.641 3.8968-.7802.2598-1.5602.5196-2.3404 1.0392-2.0806.7794-4.9412 2.0784-8.582 5.4558l-2.3406-2.8578-6.7616-8.5732-23.66560198-30.65598c3.12074198-2.85776 6.50152198-5.1959 10.14238198-7.27426 9.3622-5.71552 20.28482-9.092858 31.46742-10.132042.52 0 .7802.000004 1.3002-.259791h2.6006c3.641-.2597956 7.2818-.000008 11.1828.519583 4.1608.259796 8.3218 1.039192 12.4828 2.07837.2602 0 .5202.2598.7802.2598 7.0216 1.81856 11.4428 2.85774 24.966 12.21038 4.681 2.59796 8.3218 7.01454 12.7428 10.39174.5202.7794 1.3004 1.5588 1.8206 2.0784.26 0 .7802.2598 1.3002.5196z" fill="#cfd8dc" transform="matrix(-1 0 0 1 130.74 107.24)"/><path d="m23.6656 23.9012c-.26.5196-.5202.7794-.7802 1.0392-6.2415 8.0536-4.42106-10.91144-11.96284-8.57328-2.86066 2.59796 5.98142 10.65168 1.30032 11.69088-.26006 0-.52014 0-.7802 0-2.08048.2598-6.24146-4.9362-10.6625-11.43106-.260062-.5196-.52011-1.0392-.78017206-1.29898l1.56036206-2.85778 5.20123-9.61242 1.56036-2.85775604c.52012.25979604 1.04024.25978804 1.56036.51958404 11.96288 3.896932 19.76468 14.548552 13.78328 23.381612z" fill="#cfd8dc" transform="matrix(-1 0 0 1 28.016 134.88)"/><path d="m11.80028 1.915986c0 .259794 0 .259814-.26006.519594l-1.3003 2.33818-5.72136 10.39182-1.30032 2.33814c-.26006.2598-.26004.5196-.5201.5196s-.26006.2598-.52012.2598c-.520122 0-.780184 0-1.300306-.2598-.7801832-.51958-1.0402522-1.29898-.780191-2.07836l1.560363-3.11754 4.941174-9.09286 1.56036-2.857742c.52012-.7793868 1.56036-1.0391904 2.34054-.7793946 1.04026.2597966 1.56038 1.0391746 1.30032 1.8185626z" fill="#e64a19" transform="matrix(-1 0 0 1 30.194 133.74)"/><path d="m16.38384 2.07838-1.82042 5.7155-1.82042 6.2351-11.96282-3.89694-.78018198-.2598.26006798-.5196 1.040238-3.37734 1.820436-5.9753c4.16098.259796 8.32194 1.03919 12.48292 2.07838z" fill="#d84315" transform="matrix(-1 0 0 1 77.428 107.86)"/><path d="m93.362 1.978646-2.0806 11.950614-4.681 26.23934-2.0806 10.6516-.52 3.6372c-1.5604-.5196-2.8608-.7794-4.161-.7794-2.0806-.2598-3.641-.2598-4.9412-.2598-.5202 0-.7802 0-1.3004 0-2.8606.2598-4.681.7794-7.5416-1.5588-1.0404-.7794-2.3406-1.5588-4.161-2.0784-.2602 0-.2602 0-.5202-.2598-2.3406-.5196-4.9412-1.0392-8.0618-.7794-.2602 0-.5202 0-.5202 0-.26 0-.7802 0-1.0402.2598-1.3004 0-2.6006.2598-3.901.5196-.7802.2598-1.5604.2598-2.6006.5196-6.2414 1.8186-16.6438 6.2352-21.325 11.431l-.26.2598c-2.3406 2.598-5.98144 5.9754-8.58206 9.093-.26006.5194-.78018.7792-1.04024 1.2988l-3.3808-2.338-10.6625-7.2744c.520122-.2598.780184-.7794 1.040244-1.299.520122-.7794.520122-1.8186.780184-2.5978 2.340552-5.196 3.640852-10.6518 6.501532-15.0682 7.54176-14.8084 10.92256-17.6662 16.38384-22.6022.26-.2598.5202-.2598.7802-.5196 3.1208-2.8578 6.5016-5.45576 9.8824-7.53412 3.1206-2.07836 6.2414-3.89694 9.6222-5.4557.7802-.5196 1.8204-.7794 2.6006-1.29898 10.6624-4.676328 22.3652-6.754702 33.808-5.975315 2.0804 0 4.421.259803 6.5014.779395 1.8204.259796 3.641.519576 5.4614 1.039166z" fill="#cfd8dc" transform="matrix(-1 0 0 1 214.74 120.68)"/><path d="m23.3656 9.61244c0 .51958 0 1.0392-.26 1.55878-.7802 7.79388-2.0806 14.28878-4.161 15.06818-.26006 0-.26006 0-.52012.2598-4.16098 1.299-2.08048-5.9754-3.12074-9.35268-.26006-.7794-.78018-1.55878-1.3003-1.55878-8.32196 1.55878 3.3808 18.44546-7.54178 12.73006 0 0-.26006 0-.26006-.2598-9.3622-4.9362-7.541764-17.92596 1.56038-27.018814.52012-.259796.78018-.77939 1.3003-1.039186l10.92256 7.53408z" fill="#cfd8dc" transform="matrix(-1 0 0 1 223.802 183.2)"/><path d="m17.29406 12.22092c-.26006.2598-.52012.5196-1.04024.7794-.26006 0-.26006 0-.52012 0s-.52012 0-.78018-.2598l-2.86068-1.81858-11.442688-7.79386-.26006-.2598c-.5201226-.5196-.5201226-1.298988 0-2.078374.520122-.77938748 1.560366-1.039176 2.340548-.519584l10.6625 7.274298 3.64086 2.33814c.52012.51958.78018 1.55878.26006 2.33816z" fill="#e64a19" transform="matrix(-1 0 0 1 216.43 181.62)"/><path d="m18.20428 7.27428-9.3622 9.35266-8.84208-8.57328c.260062-.25978.520122-.25978.780184-.51958 3.120736-2.85774 6.501536-5.45572 9.882316-7.53407604z" fill="#6236ff" transform="matrix(-1 0 0 1 190.034 133.58)"/><path d="m11.134367 20.2799932c5.6011896 0 10.1418536-4.5365208 10.1418536-10.1326264 0-5.59612561-4.540664-10.13265845-10.1418536-10.13265845-5.60118958 0-10.14185359 4.53653284-10.14185359 10.13265845 0 5.5961056 4.54066401 10.1326264 10.14185359 10.1326264z" fill="#6236ff" transform="matrix(-.97094508 -.23930241 -.23930241 .97094508 113.827728 136.247936)"/><path d="m20.5456871 13.6778903c-.0122364.4539234-.0754224.9091893-.1895581 1.3657979-.1141357.4566085-.2833344.8937236-.5075963 1.3113451-.5297771 1.0374712-1.4334135 2.0398341-2.7109093 3.0070887-.8856177.6705444-2.289186 1.4429831-3.8167813 2.3555753-1.0183969.6083948-1.6915395 1.0422817-2.019428 1.3016607l-2.34101119-1.3923862c.59316412-.5639507 1.44232789-1.1653083 2.54749129-1.8040728 1.6577451-.9581468 3.4620587-2.0349913 3.8391707-2.2884775.5155184-.3465199 1.0009887-.7396493 1.4564109-1.1793882h-4.9242919l1.5290792-2.677143zm-4.0624605 6.6550799c.2973216.184347.5656352.367649.8049407.5499062s.5139699.4107487.8239931.6854746l-2.3190907 1.3513718c-.3113457-.2454449-.6009936-.4553037-.8689436-.6295766-.2679501-.1742728-.5543154-.3458264-.859096-.5146608zm-.7433656-16.73295113 2.3077246 1.35790513c-.7145988.56530788-1.2327894.95571846-1.5545718 1.17123172-1.3318233.89198672-2.6390192 1.60715594-3.8383232 2.25448365-.4088861.22069746-1.6381272 1.07070516-2.75678178 2.06074143-.74576972.6600242-1.15635863 1.6024771-1.23176671 2.8273585-.02498455 1.0065556.38560436 1.9339824 1.23176671 2.7822805.84616238.8482981 1.86066048 1.5870832 3.04349438 2.2163553l-2.4013471 1.4617885c-1.45083319-.9750897-2.51130138-1.9857567-3.18140453-3.0320012s-.98890174-2.1890521-.95639575-3.4284231c0-1.83089.70167-3.46732523 2.10500999-4.90930569.93581923-.96158667 2.41102209-1.87357047 4.32861049-2.98899489.5663025-.32940732 1.5342974-.92054726 2.9039847-1.77341985zm.6724937 3.19511937c1.1659053.69684247 2.1159649 1.55379849 2.8501791 2.57086806.7342141 1.0170696 1.1343179 2.008734 1.2003114 2.9749933h-2.2896821c-.2552549-.7876785-.7121509-1.4985675-1.3706879-2.1326672-.6585371-.63409965-1.5997427-1.29811108-2.8236169-1.99203427zm-5.0822757-3.10558955c.2311195.17971136.4806543.35670346.7486044.53097631.26795.17427285.5543154.34582646.859096.51466081l-2.4181966 1.44251524c-.2973216-.184347-.56563515-.36764909-.80494067-.54990626-.23930551-.18225718-.46815907-.37760192-.68656066-.58603423z" fill="#f2f2f2" transform="matrix(.95630476 .2923717 -.2923717 .95630476 91.480073 126.642491)"/><path d="m20.0231974-.00000396h-20.0231974v10.13241696h20.0231974z" fill="#78909c" transform="matrix(-.97086938 -.23960938 -.23960938 .97086938 151.690662 145.724741)"/><g fill="#212121"><path d="m62.6748 13.79316c-.5202-.51958-.7802-.77938-1.3004-1.29898-.26-.2598-.7802-.77938-1.3002-1.03918-4.4212-3.89694-15.6038-11.950606-34.068-11.4310154-2.8608 0-5.9814.2598034-9.3623.7793954-4.94116.779386-10.14238 2.07836-15.863716 4.41652-.520122 3.63714-.78018202 7.27428-.78018202 10.39182 0 3.37734.26006002 6.75468.78018202 9.87228v.2598c.780182 4.1566 1.560356 8.0536 2.860676 11.9506.26006 1.0392.78018 2.0784 1.3003 3.1174.52012 1.0392.78018 2.0784 1.3003 3.1176.78018 2.0784 1.82044 4.1568 2.86068 6.2352.26006.7794.78018 1.5588 1.04024 2.0784.52012 1.039 1.04024 2.0782 1.3003 3.1174 1.30032 2.3382 2.34056 4.6764 3.3808 7.2744.7802 1.5588 1.30032 3.1174 2.0805 4.936.26006.2598.26006.7794.52012 1.299 4.1609 11.1712 13.7833 36.6312 19.7647 58.9736l.52 1.8186c.2602.5196.2602 1.0392.5202 1.5588 2.3406 8.833 3.9008 17.1466 4.161 23.6414.26-.2598.52-.7794.7802-1.0392.26-.5196.52-.7794.52-1.299.2602-.5196.5202-1.0392.5202-1.8186.26-.5196.26-1.0392.5202-1.5588 1.0402-3.8968 1.0402-9.3526.78-15.068 0-.7794 0-1.299-.26-2.0784 0-.7794 0-1.5588-.26-2.3382v-.2598h.26c1.0402-.2598 1.5604-1.0392 1.3004-1.8186-.2602-.7794-1.0404-1.5586-1.8204-1.299-2.8608-23.1218-11.4428-52.7384-18.2044-68.0664-.7802-2.3382-1.8204-5.4556-3.1206-9.3526.26-.2598.52-.5196.52-.5196.5202-.7794.5202-1.8186-.26-2.3382-.5202-.5196-1.0402-.5196-1.5604-.2598-.5202-1.5588-1.3004-3.3774-2.0804-5.1958 0-.2598-.26016-.5196-.26016-.7794v-.2598c-.52012-1.0392-.78018-1.8186-1.3003-2.8578s-.78018-2.0784-1.3003-3.1176c-1.56038-3.1176-3.12074-6.4948-4.6811-9.8722-.52012-.7794-.78018-1.5588-1.30032-2.3382.26006-.5196.52012-.7794.78018-1.0392 1.04026-1.81852 1.82044-3.6371 2.60062-5.45568.26006-.51958.26006-.77938.52012-1.29896 0 0 0 0 0-.2598 1.30032-.5196 2.86068-1.29898 4.16098-1.55876l3.64088-1.0392c6.2414-1.29898 17.6842-2.07836 24.1856.2598 3.1208 1.29898 8.062 2.59796 11.7028 4.15674-.26.77938 0 1.81856.7802 2.07836.26.2598.7802.25978 1.3002.25978.2602 0 .2602.00002.5202-.25978 4.161 6.4949 8.582 11.6909 10.6626 11.4311h.7802c-4.161-5.9754-7.2818-11.4311-10.1424-14.80844z" opacity=".2" transform="matrix(-1 0 0 1 88.09 135.12)"/><path d="m4.94090612 9.87286521c2.72877443 0 4.94088613-2.21013012 4.94088613-4.93644261 0-2.72631248-2.2121117-4.93643053-4.94088613-4.93643053-2.72879442 0-4.94090612 2.21011805-4.94090612 4.93643053 0 2.72631249 2.2121117 4.93644261 4.94090612 4.93644261z" transform="matrix(-.97094508 -.23930241 -.23930241 .97094508 139.027333 182.402136)"/><path d="m4.94090612 9.87284521c2.72877443 0 4.94088613-2.21009012 4.94088613-4.93640261 0-2.72631248-2.2121117-4.93643864-4.94088613-4.93643864-2.72879442 0-4.94090612 2.21012616-4.94090612 4.93643864 0 2.72631249 2.2121117 4.93640261 4.94090612 4.93640261z" transform="matrix(-.97094508 -.23930241 -.23930241 .97094508 143.225333 166.082136)"/><path d="m4.9406425 9.87237942c2.72865988 0 4.9406625-2.21000137 4.9406625-4.93617971 0-2.72619834-2.21200262-4.93619971-4.9406625-4.93619971-2.72863988 0-4.9406425 2.21000137-4.9406425 4.93619971 0 2.72617834 2.21200262 4.93617971 4.9406425 4.93617971z" transform="matrix(-.97089286 -.23951419 -.23951419 .97089286 95.663333 171.542135)"/><path d="m23.6656 5.76782c-2.0806 2.59796-4.9412 4.41654-8.84212 5.19592-3.64086.77938-8.32194 1.29898-14.043294 1.29898-.260062-2.07836-.520126-4.41652-.78018699-6.75468 11.70276099-.2598 16.12380099-1.299 18.46434099-4.15675 1.04024-1.558774 3.12066-1.81856 4.68106-.519582 1.3004 1.298972 1.5604 3.377352.5202 4.936112z" opacity=".2" transform="matrix(-1 0 0 1 152.586 188.86)"/></g><path d="m18.98446 10.96374c-3.90092 1.03918-9.10214 1.29898-15.60366 1.29898-1.820434 0-3.38079901-1.55878-3.38079901-3.37736 0-1.81856 1.56036501-3.37732 3.38079901-3.37732 12.48292-.2598 17.164-1.299 19.5046-4.15675 1.0402-1.558774 3.1208-1.81856 4.681-.519582 1.5604 1.039182 1.8206 3.117552.5202 4.676332-2.3406 2.85774-4.9412 4.41652-9.10214 5.4557z" fill="#78909c" transform="matrix(-1 0 0 1 158.566 182.36)"/><path d="m24.7518 6.4949c-4.94114 2.59796-9.10212 4.15674-12.48292 4.93612-3.90092 1.03918-7.2817.77938-10.402442-.5196-1.560366-.7794-2.340556-2.85774-1.560372-4.41652.780184-1.81858 2.600614-2.33818 4.421034-1.81858 3.3808 1.55876 7.54178.2598 17.6841-4.67631604.7802 2.33815604 1.5604 4.41653604 2.3406 6.49489604z" fill="#212121" opacity=".2" transform="matrix(-1 0 0 1 91.256 173.84)"/><path d="m12.26888 12.56114c-3.90092 1.03918-7.28172.77936-10.402448-.51962-1.560366-.77938-2.340546-2.59794-1.560362-4.41652.780184-1.55876 2.60061-2.33816 4.42105-1.81858 3.38078 1.55878 8.06188.2598 19.24448-5.4557 1.5604-.779386 3.6408-.2597994 4.421 1.55877.7802 1.55877.2602 3.63715-1.5602 4.41655-5.9816 3.11754-10.6626 5.1959-14.56352 6.2351z" fill="#78909c" transform="matrix(-1 0 0 1 92.818 166.22)"/><path d="m93.622.779394c-.26-.259794-.26-.519598-.5202-.779394-.26.779388-.78 1.558782-1.5602 2.07838-1.0404.51958-2.3406 1.03918-3.3808 1.55876-4.4212 2.07836-8.062 3.63714-11.1828 4.41652-.52.2598-1.0402.2598-1.5602.2598-.5202 0-1.0404.2598-1.5604.2598-2.6006.2598-4.9412 0-7.0216-1.03918-.2602-.2598-.7802-.5196-1.0404-.7794-.26.5196-.26 1.299 0 1.81858 0 .2598.2602.51958.2602.77938s.26.5196.52.5196c.2602.5196.7802.77938 1.3004 1.03918.52.25978.7802.2598 1.3002.5196h.5202c.26.25978.5202.25978 1.0402.25978.5202 0 1.0402.2598 1.3004.2598h1.3002.7802 1.0402.5202.5202.78c.5202 0 .7802-.2598 1.3004-.2598.26 0 .7802-.25978 1.0402-.25978.2602 0 .7802-.2598 1.0402-.2598.2602 0 .7802-.2598 1.3004-.5196s.7802-.25978 1.3002-.51958c2.0806-.7794 4.4212-1.81858 7.0218-3.11756 1.0402-.5196 1.8204-1.03918 2.8606-1.29898 1.0402-1.29898 1.8204-3.37734.7802-4.936106zm-66.0556 15.327926c0 .2598-.26.7794-.52 1.0392-1.5604 1.81856-3.3808 3.37728-5.7214 4.15668-1.0402.5196-2.08048.7794-3.12072 1.0392-3.3808.7794-7.54178 1.299-12.48294 1.299-1.04024 0-2.08048 0-3.12072 0-1.040252 0-1.820438-.2598-2.34056-1.0392 0 .2598-.26005802.5196-.26005802 1.0392 0 1.8186 1.56036402 3.3774 3.38079802 3.3774h2.6006c2.34056 0 4.6811-.2598 6.50154-.2598 1.04024 0 1.82042-.2598 2.86066-.2598.52012 0 1.04026-.2598 1.30032-.2598.52012 0 .78018 0 1.3003-.2598.52012 0 .78018-.2598 1.04024-.2598s.52012-.2598 1.04034-.2598c.26 0 .52-.2598.78-.2598.2602 0 .2602 0 .5202-.2598.26 0 .7802-.2598 1.0402-.2598.5202-.2598 1.0404-.5196 1.5604-.7794.26-.2598.7802-.5196 1.0402-.5196.5202-.2598.7802-.5196 1.0404-.7794.26-.2598.78-.5196 1.0402-1.0392.26-.2598.7802-.7794 1.0402-1.0392.26-.5196.5202-.77932.7802-1.29892 0-.2598 0-.5196 0-.7794-.5202-1.03918-.7802-1.81856-1.3004-2.33816z" fill="#212121" opacity=".2" transform="matrix(-1 0 0 1 158.306 167.62)"/><path d="m85.04 51.9592c-.26.5196-.5202.7794-.7802 1.0392.5202-3.6372.26-7.5342-2.8606-12.73-3.901-6.2352-8.062-8.0538-11.7028-8.8332-.5202-.2598-1.3004-.2598-1.8204-.5196-.2602 0-.7802-.2598-1.5604-.7794-5.7214-3.1174-23.1454-18.1856-39.7894-21.30314-.52 0-1.3002-.2598-2.0804-.2598-4.421-.51958-8.322-1.03918-11.44274-1.55876-1.82042-.2598-3.64086-.5196-4.94116-.7794-5.72136-1.29898-8.06189802-2.59796-8.06189802-5.195918 0-.259794 0-.519594 0-1.03918596.52012202.25979596.78018402.51959996 1.30030602.77939596h2.600612c3.64086-.259796 7.2817-.000008 11.18262.519582 4.16098.259796 8.32206 1.039186 12.48286 2.078366.2602 0 .5202.2598.7802.2598 7.0218 1.81856 11.4428 2.85774 24.966 12.2104 4.681 2.59794 8.3218 7.01446 12.743 10.39186.52.7794 1.3002 1.5588 1.8204 2.0784.52-.7794 1.5604-1.0392 2.3404-.7794.7802.2598 1.0404 1.0392.7802 1.8186 12.223 3.1174 20.0248 13.769 14.0434 22.6022z" fill="#212121" opacity=".2" transform="matrix(-1 0 0 1 89.39 106.82)"/><g fill="#212121" opacity=".2" transform="translate(150 158)"><path d="m9.6873 4.16696c-.26006-.77938-.78018-1.55878-1.30032-1.55878-8.3219478 1.55878 3.3808 18.44542-7.541764 12.73-1.820428-10.91142-.780184-15.587744 3.900924-15.32794846 3.9009 0 4.94116 2.33814846 4.94116 4.15672846z" transform="matrix(-1 0 0 1 67.926 38.18)"/><path d="m52.2722 11.17122c0 .51958.2602.77938.2602 1.03918 0 .5196 0 1.03918-.2602 1.55878v.25978.2598.2598.2598h-.26c-.26 0-.7802-.2598-1.0402-.5196-2.6006-1.03918-4.9412-2.33814-6.7616-3.63712-.26 0-.26-.25982-.5202-.25982-.26 0-.7802.00002-1.0402.25982-1.3002 0-2.6006.25978-3.9008.51958-.7802.2598-1.5604.25978-2.6008.51958-6.2414 1.81856-16.64382 6.2351-21.32492 11.431l-.26006.2598c-2.34054 2.598-5.9814 5.9754-8.58202 9.0928.78018.5196.78018 1.5588.26006 2.3382-.26006.2598-.52012.5196-1.04024.7794-.26006 0-.26006 0-.52012 0-.78018 7.7938-2.08048 14.2888-4.160978 15.0682-.260062 0-.26006 0-.520122.2598.260062-3.897-.26006-11.9506.780184-17.4064 0-.5196.26006-1.299.520122-1.8186.26006-.5196.260062-1.0392.780174-1.5586 2.60062-5.4558 11.70276-17.4064 25.48592-24.4209 2.3406-1.29896 4.6812-2.33816 7.2818-3.11756 5.4612-1.81856 9.1022-2.338152 12.483-2.59794793 1.5602 2.85774793 2.6006 4.67634793 3.6408 8.05368793.7802.77938 1.0402 1.81856 1.3002 3.11754z" transform="matrix(-1 0 0 1 55.638 1.04)"/></g><g fill="#212121" opacity=".2" transform="translate(72 146)"><path d="m3.64086 3.37734c-.26006.5196-.52012.7794-.78018 1.0392.52012.77938.78018 1.55876 1.3003 2.33816h-.26006s-.52012-1.0392-1.04024-2.33816c0 0-.00002-.2598-.26008-.2598 0-.2598-.26004-.5196-.5201-1.03918-.260068-.5196-.780194-1.298998-1.040256-1.81859 0-.259796-.260056-.519582-.260056-.519582l-.260068-.259792c-.26006-.259796-.260062-.51960393-.52012397-.51960393 0 0 .26006397.25980793.52012397.51960393.520122.51959 1.30031 1.558784 2.34056 2.338164.52012.2598.52012.51958.78018.51958z" transform="matrix(-1 0 0 1 8.548 5.24)"/><path d="m4.6811.519592c-.26006.51959-.26006.779386-.52012 1.298978-.26006-.259796-.78018-.259788-1.04026-.519584-.52012-.259796-1.300288-.519598-1.82041-.779394s-1.30030603-.51958407-1.30030603-.51958407c.26006203 0 1.30030603.25979207 2.60061603.25979207h.78018c.26006 0 .78018-.000004 1.3003.259792-.26006 0 0 0 0 0z" transform="matrix(-1 0 0 1 6.468 1.6)"/><path d="m2.08048-.00000396c-.260054.51959196-.260052 1.29898196-.780174 2.33816396 0 .2598-.260062.5196-.260062.7794v.25978c-.26006 0-.780182-.2598-1.04024301-.5196 0 0 0-.25978.26006301-.25978.520122-.5196.780182-1.298982 1.300304-1.558778 0 0-.000004-.259792.260058-.259792-.260062-.51959 0-.77939396.260054-.77939396z" transform="matrix(-1 0 0 1 82.666 24.46)"/><path d="m5.46128-.00000396s-1.56036.77939596-2.86068 2.07836396l-.26004.2598c-.26006.2598-.26008.25978-.520132.51958 0 0-.000002.25982-.260062.25982-.260062 0-.260058-.25982-.52012-.25982-.26006 0-.780186.00002-1.04024798.25982 0-.2598.26006198-.25982.26006198-.5196 0 0 .000002 0 .260062-.2598.260062-.2598.780184-.519598 1.300306-.779394 1.820432-1.039182 3.640852-1.55876996 3.640852-1.55876996z" transform="matrix(-1 0 0 1 91.248 20.58)"/></g><path d="m42.2638 22.2472c-17.424 4.1568-29.90704 4.9362-39.78936 2.3382-1.820428-.5196-2.860672-2.3382-2.3405488-4.1568.5201228-1.81852 2.3405488-2.8577 4.1609688-2.3381 8.58202 2.3381 20.28474 1.55876 36.40854-2.33818 16.1238-3.89692 26.7864-8.83304 33.548-14.80834 1.3002-1.298978 3.3808-1.298982 4.681.259792 1.3004 1.298988 1.3004 3.377348-.26 4.676328-7.2818 6.7547-18.9846 11.9506-36.4086 16.3671z" fill="#263238" transform="matrix(-1 0 0 1 168.844 100.16)"/><path d="m23.8086 25.1778c1.5604 6.495-1.5604 12.73-6.76164 14.029-5.46128 1.299-10.92256-2.8576-12.74298-9.3526l-3.900926-15.58772c-1.560366-6.4949 1.560366-12.729996 6.761586-14.028974 5.46128-1.298978 10.92258 2.857754 12.743 9.352654z" fill="#90a4ae" transform="matrix(-1 0 0 1 205.78 53.84)"/><path d="m23.8086 25.1778c1.5604 6.495-1.5604 12.73-6.76162 14.029-5.4613 1.299-10.92258-2.8576-12.743-9.3526l-3.900926-15.58772c-1.560366-6.4949 1.560364-12.72999 6.761586-14.028968 5.46128-1.298978 10.92256 2.857748 12.743 9.352648z" fill="#90a4ae" transform="matrix(-1 0 0 1 102.016 28.12)"/><path d="m113.0204 49.6766c10.4024 42.0868.5202 58.454-41.6098 68.8458-42.1298 10.3918-58.51372.5196-68.91616-41.5674-9.62226-38.9694 9.62226-67.80664 40.04936-75.080914 30.6872-7.793866 60.8544 8.833054 70.4766 47.802514z" fill="#cfd8dc" transform="matrix(-1 0 0 1 198.77 .76)"/><path d="m29.907-.00000198c17.9442 5.97530198 33.0278 21.82280198 39.2692 47.02300198 10.4026 42.087.5202 58.454-41.6098 68.8458-10.66242 2.598-19.76456 3.897-27.5664 3.897 10.14238 4.1568 23.6656 3.3774 41.8698-1.0392 42.13-10.3918 52.0122-26.4992 41.6098-68.8458-7.8018-31.9549-29.3868-48.84162-53.5726-49.88080198z" fill="#212121" opacity=".2" transform="matrix(-1 0 0 1 169.23 .82)"/><path d="m62.2028 90.249c-32.2474 7.794-52.53226-4.4166-60.594146-36.6312-6.501534-25.9796 6.761586-43.12606 38.749146-50.91992 32.2476-7.79388 51.7522 1.29898 58.2536 27.27852 8.322 33.5136-2.8606 52.219-36.4086 60.2726z" fill="#263238" transform="matrix(-1 0 0 1 191.122 22.28)"/><path d="m57.9262 83.78c-30.4272 7.5342-48.89148-3.637-56.433248-34.0332-5.981412-24.161 5.981408-39.4889 36.408648-47.02298 30.427-7.53408 48.1112.51958 54.0926 24.68058 8.062 32.2146-1.8204 48.322-34.068 56.3756z" fill="#000014" transform="matrix(-1 0 0 1 187.626 25.64)"/><path d="m11.26346 57.9344c1.3003 5.196 3.12072 9.8722 5.46128 14.5486-7.02166-6.7546-12.48294-15.5878-15.083544-25.9796-3.640854-14.2888-1.040246-28.5775 5.981404-40.2683 4.16098-2.33816 9.10214-4.416532 14.8234-6.23510198-11.70266 16.36712198-16.38376 37.15080198-11.18254 57.93440198z" fill="#eee" transform="matrix(-1 0 0 1 177.372 29.4)"/></g></svg>