<svg height="50" viewBox="0 0 50 50" width="50" xmlns="http://www.w3.org/2000/svg" xmlns:xlink="http://www.w3.org/1999/xlink"><defs><linearGradient id="grc-stamp-fav-tn-stops"><stop offset="0" stop-color="#b53d00"/><stop offset="1" stop-color="#ff9d3f"/></linearGradient><linearGradient id="grc-stamp-fav-tn-grad" x1="20.607143%" x2="98.374093%" xlink:href="#grc-stamp-fav-tn-stops" y1="14.216759%" y2="100%"/></defs><g fill="none" fill-rule="evenodd"><path d="m24.5901639 0 21.2957067 12.5v25l-21.2957067 12.5-21.29570662-12.5v-25z" fill="url(#grc-stamp-fav-tn-grad)"/><path d="m24.5901639 1.38888889 20.1126119 11.80555551v23.6111112l-20.1126119 11.8055555-20.1126118-11.8055555v-23.6111112z" fill="#fff"/><path d="m24.5901639 2.77777778 18.9295171 11.11111112v22.2222222l-18.9295171 11.1111111-18.92951699-11.1111111v-22.2222222z" fill="url(#grc-stamp-fav-tn-grad)"/><path d="m38.5245902 25.8333333c-.0251065.9313523-.1547506 1.8654594-.3889323 2.8023212-.2341816.9368617-.5813408 1.8337271-1.0414775 2.6905959-1.0869878 2.1286661-2.9410539 4.1852974-5.5621983 6.169894-1.8170955 1.375812-4.6969134 2.9606886-7.8312078 4.83313-2.0895296 1.2482943-3.4706724 2.1385362-4.1434285 2.6707256l-4.8032474-2.8568747c1.2170442-1.1571046 2.9593441-2.39096 5.2268998-3.7015663.2915429-.1685065.5852952-.3388023.8792235-.5096702l.5874886-.3421379.584343-.3414994c2.7139703-1.5888084 5.2070894-3.0860731 5.8260909-3.5021522 1.057732-.7109838 2.0538118-1.5176001 2.9882396-2.4198489h-10.1035797l3.1373392-5.4929171zm-8.3352884 13.6547812c.6100395.3782401 1.1605608.7543362 1.6515638 1.1282885.4910031.3739522 1.0545548.8427672 1.6906552 1.4064452l-4.7582713 2.772722c-.6388139-.5035997-1.2331086-.9341846-1.782884-1.2917547-.5497755-.3575701-1.1373351-.7095609-1.7626788-1.0559724zm-1.5252476-34.33242741 4.7349731 2.78616608c-1.4662018 1.15988923-2.5294165 1.9609271-3.1896442 2.40311363-2.7326129 1.8301633-5.4146954 3.2975356-7.8754072 4.6257117-.8389458.4528233-3.3610819 2.1968549-5.6563186 4.2281947-1.5301579 1.3542266-2.3725973 3.2879355-2.5273183 5.8011268-.0512629 2.0652338.7911765 3.9681126 2.5273183 5.7086364 1.7361417 1.7405238 3.8176719 3.2563507 6.2445907 4.5474806l-4.9270437 2.9992731c-2.9767952-2.0006726-5.1526461-4.0743423-6.5275525-6.2210092-1.3749064-2.1466668-2.02901196-4.4914605-1.96231672-7.0343809 0-3.7565894 1.43967472-7.1141998 4.31902422-10.0728311 1.9200981-1.9729674 4.9468947-3.8441605 8.8813703-6.1327696 1.16193-.6758724 3.1480382-1.88877647 5.9583246-3.63871221zm1.3798339 6.55573141c2.3921848 1.4297697 4.3415013 3.1880577 5.8479495 5.274864 1.5064483 2.0868063 2.3273746 4.1214867 2.4627789 6.1040413h-4.6979314c-.5237276-1.6161455-1.4611791-3.0747357-2.8123544-4.3757708-1.3511753-1.301035-3.2823252-2.6634425-5.7934497-4.0872225zm-10.4277281-6.3719965c.4742071.36872874.9861984.73187817 1.5359739 1.08944828.5497754.35757012 1.137335.70956092 1.7626788 1.05597241l-4.9616152 2.95972861c-.6100395-.3782401-1.1605607-.75433627-1.6515638-1.12828848-.491003-.37395222-.9605609-.77475729-1.4086736-1.20241519z" fill="#fff"/></g></svg>
