<svg height="50" viewBox="0 0 156 50" width="156" xmlns="http://www.w3.org/2000/svg" xmlns:xlink="http://www.w3.org/1999/xlink"><defs><linearGradient id="a"><stop offset="0" stop-color="#4e5cd4"/><stop offset="1" stop-color="#ac4fe7"/></linearGradient><linearGradient id="b" x1="19.619217%" x2="100%" xlink:href="#a" y1="48.749291%" y2="51.747618%"/><path id="c" d="m64.4101562 34.4335938c2.3125 0 4.140625-.6582032 5.484375-1.9746094 1.34375-1.3164063 2.015625-3.1035156 2.015625-5.3613282v-2.15625h-7.1015624v2.6601563h3.6679687l-.0117187.3046875c-.0390626 1.0234375-.4257813 1.8476562-1.1601563 2.4726562s-1.6796875.9375-2.8359375.9375c-1.3984375 0-2.5058594-.5195312-3.3222656-1.5585937-.8164063-1.0390625-1.2246094-2.4609375-1.2246094-4.265625 0-1.7734375.3925781-3.1699219 1.1777344-4.1894531.7851562-1.0195313 1.8613281-1.5292969 3.2285156-1.5292969.984375 0 1.8164062.2363281 2.4960938.7089844.6796874.4726562 1.1523437 1.1386719 1.4179687 1.9980469h3.515625c-.25-1.7578126-1.0507813-3.1679688-2.4023437-4.2304688-1.3515626-1.0625-3.0273438-1.59375-5.0273438-1.59375-2.4609375 0-4.4140625.796875-5.859375 2.390625s-2.1679688 3.7539062-2.1679688 6.4804688c0 2.765625.7226563 4.9414062 2.1679688 6.5273437s3.4257812 2.3789063 5.9414062 2.3789063zm13.9570313-.4335938v-7.1601562c0-.8984376.2851563-1.609375.8554687-2.1328126.5703126-.5234374 1.3203126-.7851562 2.25-.7851562.25 0 .5449219.0214844.8847657.0644531.3398437.0429688.5761719.0917969.7089843.1464844v-3.1054687c-.3046874-.109375-.7421874-.1640626-1.3125-.1640626-.796875 0-1.5.2148438-2.109375.6445313s-1 .9726563-1.171875 1.6289063h-.2109374v-2.0625h-3.3046876v12.9257812zm8.8007813-14.7304688c.6015624 0 1.0878906-.1601562 1.4589843-.4804687.3710938-.3203125.5566407-.734375.5566407-1.2421875 0-.515625-.1835938-.9316406-.5507813-1.2480469-.3671875-.3164062-.8554687-.4746093-1.4648437-.4746093s-1.0976563.1582031-1.4648438.4746093c-.3671875.3164063-.5507812.7324219-.5507812 1.2480469 0 .5078125.1835937.921875.5507812 1.2421875s.8554688.4804687 1.4648438.4804687zm1.6992187 14.7304688v-12.9257812h-3.4101563v12.9257812zm8.0742187.1992188c.8984376 0 1.6953126-.1972657 2.390625-.5917969.6953128-.3945313 1.2148438-.9394531 1.5585938-1.6347657h.210937v2.0273438h3.304688v-17.859375h-3.410156v6.9960938h-.199219c-.335937-.7109376-.84375-1.2675782-1.5234375-1.6699219-.6796875-.4023438-1.4570313-.6035157-2.3320313-.6035157-1.625 0-2.9082031.5957032-3.8496093 1.7871094-.9414063 1.1914063-1.4121094 2.8144532-1.4121094 4.8691406 0 2.0625.4707031 3.6914063 1.4121094 4.8867188.9414062 1.1953125 2.2246093 1.7929688 3.8496093 1.7929688zm1.1601563-2.8476563c-.9140625 0-1.6289063-.3378906-2.1445313-1.0136719-.515625-.6757812-.7734374-1.6113281-.7734374-2.8066406 0-1.1875.2597656-2.1191406.7792968-2.7949219.5195313-.6757812 1.2324219-1.0136719 2.1386719-1.0136719s1.6210937.34375 2.1445315 1.03125c.523437.6796876.785156 1.609375.785156 2.7890626 0 1.1875-.259766 2.1191406-.779297 2.7949218-.5195311.6757813-1.236328 1.0136719-2.1503905 1.0136719zm15.5273435 2.9296875c1.664063 0 3.003906-.4277344 4.019532-1.2832031 1.015624-.8554688 1.59375-2.0136719 1.734374-3.4746094h-3.1875c-.125.6328125-.408203 1.1171875-.849609 1.453125s-1.013672.5039063-1.716797.5039063c-.921875 0-1.630859-.3417969-2.126953-1.0253907-.496094-.6835937-.744141-1.6660156-.744141-2.9472656 0-1.265625.248047-2.234375.744141-2.90625s1.205078-1.0078125 2.126953-1.0078125c.710938 0 1.28711.1816406 1.728516.5449219.441406.3632812.720703.8613281.83789 1.4941406h3.1875c-.140624-1.4921875-.71289-2.671875-1.716796-3.5390625-1.003907-.8671875-2.34961-1.3007812-4.03711-1.3007812-2.023437 0-3.582031.5820312-4.675781 1.7460937s-1.640625 2.8203125-1.640625 4.96875c0 2.1640625.548828 3.8339844 1.646484 5.0097656 1.097657 1.1757813 2.654297 1.7636719 4.669922 1.7636719zm14.144532 0c1.984374 0 3.539062-.5976562 4.664062-1.7929688 1.132812-1.1953124 1.699219-2.8476562 1.699219-4.9570312 0-2.09375-.56836-3.7402344-1.705078-4.9394531-1.136719-1.1992188-2.689453-1.7988281-4.658203-1.7988281s-3.521485.5996093-4.658204 1.7988281c-1.136718 1.1992187-1.705078 2.8457031-1.705078 4.9394531 0 2.109375.564453 3.7617188 1.69336 4.9570312 1.128906 1.1953126 2.685546 1.7929688 4.669922 1.7929688zm0-2.7890625c-.914063 0-1.619141-.3457031-2.115235-1.0371094-.496094-.6914062-.744141-1.6660156-.744141-2.9238281 0-1.2421875.25-2.2109375.75-2.90625s1.203126-1.0429688 2.109376-1.0429688c.898437 0 1.599609.3476563 2.103515 1.0429688s.755859 1.6640625.755859 2.90625c0 1.2578125-.25 2.2324219-.75 2.9238281-.5.6914063-1.203124 1.0371094-2.109374 1.0371094zm10.875-12.2226563c.601562 0 1.08789-.1601562 1.458984-.4804687s.55664-.734375.55664-1.2421875c0-.515625-.183593-.9316406-.550781-1.2480469-.367187-.3164062-.855469-.4746093-1.464843-.4746093-.609376 0-1.097657.1582031-1.464844.4746093-.367188.3164063-.550782.7324219-.550782 1.2480469 0 .5078125.183594.921875.550782 1.2421875.367187.3203125.855468.4804687 1.464844.4804687zm1.699218 14.7304688v-12.9257812h-3.410156v12.9257812zm6.855469 0v-7.453125c0-.8515625.25-1.5332031.75-2.0449219.5-.5117187 1.171875-.7675781 2.015625-.7675781.804688 0 1.416016.2304688 1.833984.6914062.417969.4609376.626954 1.1367188.626954 2.0273438v7.546875h3.410156v-8.3554688c0-1.546875-.392578-2.7421874-1.177735-3.5859374-.785156-.84375-1.896484-1.265625-3.333984-1.265625-.945313 0-1.777344.2109374-2.496094.6328124s-1.226562.9960938-1.523437 1.7226563h-.210938v-2.0742187h-3.304687v12.9257812z"/><linearGradient id="d" x1="20.607143%" x2="98.374093%" xlink:href="#a" y1="14.216759%" y2="100%"/></defs><g fill="none" fill-rule="evenodd"><g fill-rule="nonzero"><use fill="#a050e4" xlink:href="#c"/><use fill="url(#b)" xlink:href="#c"/></g><path d="m24.5901639 0 21.2957067 12.5v25l-21.2957067 12.5-21.29570662-12.5v-25z" fill="url(#d)"/><path d="m24.5901639 1.38888889 20.1126119 11.80555551v23.6111112l-20.1126119 11.8055555-20.1126118-11.8055555v-23.6111112z" fill="#fff"/><path d="m24.5901639 2.77777778 18.9295171 11.11111112v22.2222222l-18.9295171 11.1111111-18.92951699-11.1111111v-22.2222222z" fill="url(#d)"/><path d="m38.5245902 25.8333333c-.0251065.9313523-.1547506 1.8654594-.3889323 2.8023212-.2341816.9368617-.5813408 1.8337271-1.0414775 2.6905959-1.0869878 2.1286661-2.9410539 4.1852974-5.5621983 6.169894-1.8170955 1.375812-4.6969134 2.9606886-7.8312078 4.83313-2.0895296 1.2482943-3.4706724 2.1385362-4.1434285 2.6707256l-4.8032474-2.8568747c1.2170442-1.1571046 2.9593441-2.39096 5.2268998-3.7015663.2915429-.1685065.5852952-.3388023.8792235-.5096702l.5874886-.3421379.584343-.3414994c2.7139703-1.5888084 5.2070894-3.0860731 5.8260909-3.5021522 1.057732-.7109838 2.0538118-1.5176001 2.9882396-2.4198489h-10.1035797l3.1373392-5.4929171zm-8.3352884 13.6547812c.6100395.3782401 1.1605608.7543362 1.6515638 1.1282885.4910031.3739522 1.0545548.8427672 1.6906552 1.4064452l-4.7582713 2.772722c-.6388139-.5035997-1.2331086-.9341846-1.782884-1.2917547-.5497755-.3575701-1.1373351-.7095609-1.7626788-1.0559724zm-1.5252476-34.33242741 4.7349731 2.78616608c-1.4662018 1.15988923-2.5294165 1.9609271-3.1896442 2.40311363-2.7326129 1.8301633-5.4146954 3.2975356-7.8754072 4.6257117-.8389458.4528233-3.3610819 2.1968549-5.6563186 4.2281947-1.5301579 1.3542266-2.3725973 3.2879355-2.5273183 5.8011268-.0512629 2.0652338.7911765 3.9681126 2.5273183 5.7086364 1.7361417 1.7405238 3.8176719 3.2563507 6.2445907 4.5474806l-4.9270437 2.9992731c-2.9767952-2.0006726-5.1526461-4.0743423-6.5275525-6.2210092-1.3749064-2.1466668-2.02901196-4.4914605-1.96231672-7.0343809 0-3.7565894 1.43967472-7.1141998 4.31902422-10.0728311 1.9200981-1.9729674 4.9468947-3.8441605 8.8813703-6.1327696 1.16193-.6758724 3.1480382-1.88877647 5.9583246-3.63871221zm1.3798339 6.55573141c2.3921848 1.4297697 4.3415013 3.1880577 5.8479495 5.274864 1.5064483 2.0868063 2.3273746 4.1214867 2.4627789 6.1040413h-4.6979314c-.5237276-1.6161455-1.4611791-3.0747357-2.8123544-4.3757708-1.3511753-1.301035-3.2823252-2.6634425-5.7934497-4.0872225zm-10.4277281-6.3719965c.4742071.36872874.9861984.73187817 1.5359739 1.08944828.5497754.35757012 1.137335.70956092 1.7626788 1.05597241l-4.9616152 2.95972861c-.6100395-.3782401-1.1605607-.75433627-1.6515638-1.12828848-.491003-.37395222-.9605609-.77475729-1.4086736-1.20241519z" fill="#fff"/></g></svg>