<svg height="32" viewBox="0 0 140 32" width="140" xmlns="http://www.w3.org/2000/svg" xmlns:xlink="http://www.w3.org/1999/xlink"><defs><linearGradient id="a"><stop offset="0" stop-color="#4e5cd4"/><stop offset="1" stop-color="#ac4fe7"/></linearGradient><linearGradient id="b" x1="19.619217%" x2="100%" xlink:href="#a" y1="48.749291%" y2="51.747618%"/><path id="c" d="m44.8417969 24.3613281c1.9270833 0 3.4505208-.5485026 4.5703125-1.6455078 1.1197916-1.0970052 1.6796875-2.586263 1.6796875-4.4677734v-1.796875h-5.9179688v2.2167969h3.0566407l-.0097657.2539062c-.0325521.8528646-.3548177 1.5397135-.9667969 2.0605469-.6119791.5208333-1.3997395.78125-2.3632812.78125-1.1653646 0-2.0882161-.4329427-2.7685547-1.2988281-.6803385-.8658855-1.0205078-2.0507813-1.0205078-3.5546876 0-1.4778645.3271484-2.6416015.9814453-3.4912109s1.5511068-1.2744141 2.6904297-1.2744141c.8203125 0 1.5136719.1969402 2.0800781.5908204.5664063.3938802.9602865.9488932 1.1816406 1.665039h2.9296876c-.2083334-1.4648437-.8756511-2.6399739-2.0019532-3.5253906-1.1263021-.88541667-2.5227864-1.328125-4.1894531-1.328125-2.0507813 0-3.6783854.6640625-4.8828125 1.9921875s-1.8066406 3.1282552-1.8066406 5.4003906c0 2.3046875.6022135 4.1178386 1.8066406 5.4394531 1.2044271 1.3216146 2.8548177 1.9824219 4.9511719 1.9824219zm11.6308593-.3613281v-5.9667969c0-.7486979.2376303-1.3411458.7128907-1.7773437s1.1002604-.6542969 1.875-.6542969c.2083333 0 .4541015.0179036.7373047.0537109.2832031.0358073.4801432.0764974.5908203.1220704v-2.5878907c-.2539063-.0911458-.6184896-.1367187-1.09375-.1367187-.6640625 0-1.25.1790364-1.7578125.5371094-.5078125.3580729-.8333334.8105468-.9765625 1.3574218h-.1757813v-1.71875h-2.7539062v10.7714844zm7.3339844-12.2753906c.5013021 0 .9065755-.1334636 1.2158203-.4003906.3092448-.2669271.4638672-.6119792.4638672-1.0351563 0-.4296875-.1529948-.77636719-.4589843-1.04003906-.3059896-.26367188-.7128907-.39550782-1.2207032-.39550782s-.9147135.13183594-1.2207031.39550782c-.3059896.26367187-.4589844.61035156-.4589844 1.04003906 0 .4231771.1529948.7682292.4589844 1.0351563.3059896.266927.7128906.4003906 1.2207031.4003906zm1.4160156 12.2753906v-10.7714844h-2.8417968v10.7714844zm6.7285157.1660156c.7486979 0 1.4127604-.164388 1.9921875-.493164.5794271-.3287761 1.0123698-.7828776 1.2988281-1.3623047h.1757813v1.6894531h2.7539062v-14.8828125h-2.8417969v5.8300781h-.1660156c-.2799479-.5924479-.703125-1.0563151-1.2695313-1.3916015-.5664062-.3352865-1.2141927-.5029297-1.9433593-.5029297-1.3541667 0-2.4235026.4964192-3.2080078 1.4892578-.7845052.9928385-1.1767579 2.3453776-1.1767579 4.0576172 0 1.71875.3922527 3.0761718 1.1767579 4.0722656s1.8538411 1.4941406 3.2080078 1.4941406zm.9667969-2.3730468c-.7617188 0-1.3574219-.2815756-1.7871094-.8447266-.4296875-.5631511-.6445313-1.3427734-.6445313-2.3388672 0-.9895833.2164714-1.7659505.6494141-2.3291016.4329427-.563151 1.0270182-.8447265 1.7822266-.8447265.7552083 0 1.3509114.2864583 1.7871093.859375.4361979.5664062.6542969 1.3411458.6542969 2.3242187 0 .9895834-.2164714 1.7659505-.6494141 2.3291016-.4329427.563151-1.0302734.8447266-1.7919921.8447266zm12.9394531 2.4414062c1.3867187 0 2.5032552-.3564453 3.3496093-1.0693359.8463542-.7128907 1.328125-1.6780599 1.4453126-2.8955079h-2.65625c-.1041667.5273438-.3401693.9309896-.7080079 1.2109376-.3678385.2799479-.8447265.4199218-1.430664.4199218-.7682292 0-1.3590495-.2848307-1.772461-.8544922-.4134114-.5696614-.6201171-1.3883463-.6201171-2.4560546 0-1.0546876.2067057-1.8619792.6201171-2.421875.4134115-.5598959 1.0042318-.8398438 1.772461-.8398438.5924479 0 1.0725911.1513672 1.4404297.4541016.3678385.3027343.6005859.7177734.6982422 1.2451172h2.65625c-.1171876-1.2434896-.5940756-2.2265626-1.4306641-2.9492188-.8365886-.7226562-1.9580078-1.0839844-3.3642578-1.0839844-1.6861979 0-2.9850261.4850261-3.8964844 1.4550782-.9114583.970052-1.3671875 2.3502604-1.3671875 4.140625 0 1.8033854.4573568 3.1949869 1.3720703 4.1748046.9147136.9798177 2.2119141 1.4697266 3.8916016 1.4697266zm11.7871093 0c1.6536459 0 2.9492188-.4980469 3.8867188-1.4941406.94401-.9960938 1.416016-2.3730469 1.416016-4.1308594 0-1.7447917-.473633-3.116862-1.420899-4.1162109-.947265-.999349-2.2412108-1.4990235-3.8818358-1.4990235s-2.9345703.4996745-3.8818359 1.4990235c-.9472656.9993489-1.4208984 2.3714192-1.4208984 4.1162109 0 1.7578125.4703776 3.1347656 1.4111328 4.1308594.9407552.9960937 2.2379557 1.4941406 3.8916015 1.4941406zm0-2.3242188c-.7617187 0-1.3492838-.2880859-1.7626953-.8642578-.4134114-.5761718-.6201171-1.3883463-.6201171-2.4365234 0-1.0351562.2083333-1.8424479.625-2.421875.4166666-.5794271 1.0026041-.8691406 1.7578124-.8691406.748698 0 1.3330079.2897135 1.7529297.8691406.4199219.5794271.6298831 1.3867188.6298831 2.421875 0 1.0481771-.2083336 1.8603516-.6250002 2.4365234-.4166667.5761719-1.0026042.8642578-1.7578126.8642578zm9.0624998-10.1855468c.501302 0 .906576-.1334636 1.215821-.4003906.309244-.2669271.463867-.6119792.463867-1.0351563 0-.4296875-.152995-.77636719-.458985-1.04003906-.305989-.26367188-.71289-.39550782-1.220703-.39550782-.507812 0-.914713.13183594-1.220703.39550782-.305989.26367187-.458984.61035156-.458984 1.04003906 0 .4231771.152995.7682292.458984 1.0351563.30599.266927.712891.4003906 1.220703.4003906zm1.416016 12.2753906v-10.7714844h-2.841797v10.7714844zm5.712891 0v-6.2109375c0-.7096354.208333-1.2776693.625-1.7041016.416666-.4264323.976562-.6396484 1.679687-.6396484.670573 0 1.180013.1920573 1.52832.5761719.348308.3841146.522461.9472656.522461 1.6894531v6.2890625h2.841797v-6.9628906c0-1.2890625-.327148-2.2851563-.981445-2.9882813s-1.580404-1.0546875-2.77832-1.0546875c-.787761 0-1.48112.1757813-2.080079.5273438-.598958.3515625-1.022135.8300781-1.269531 1.4355468h-.175781v-1.7285156h-2.753906v10.7714844z"/><linearGradient id="d" x1="20.607143%" x2="98.374093%" xlink:href="#a" y1="14.216759%" y2="100%"/></defs><g fill="none" fill-rule="evenodd"><g fill-rule="nonzero"><use fill="#a050e4" xlink:href="#c"/><use fill="url(#b)" xlink:href="#c"/></g><g><path d="m15.7377049 0 13.6292523 8v16l-13.6292523 8-13.62925224-8v-16z" fill="url(#d)"/><path d="m15.7377049.88888889 12.8720716 7.55555555v15.11111116l-12.8720716 7.5555555-12.87207156-7.5555555v-15.11111116z" fill="#fff"/><path d="m15.7377049 1.77777778 12.1148909 7.11111111v14.22222221l-12.1148909 7.1111111-12.11489088-7.1111111v-14.22222221z" fill="url(#d)"/><path d="m24.6557377 16.5333333c-.0160681.5960655-.0990404 1.193894-.2489166 1.7934856-.1498763.5995915-.3720582 1.1735853-.6665456 1.7219814-.6956722 1.3623463-1.8822745 2.6785903-3.5598069 3.9487321-1.1629412.8805197-3.0060246 1.8948407-5.011973 3.0932032-1.337299.7989084-2.2212304 1.3686632-2.6517943 1.7092644l-3.07407835-1.8283998c.77890825-.7405469 1.89398025-1.5302144 3.34521585-2.3690024.1554896-.0898702.3119611-.1805356.4686614-.2715454l.4700344-.2736118c1.8768586-1.0949738 3.6782195-2.1746257 4.1026777-2.459937.6769485-.4550297 1.3144396-.9712641 1.9124733-1.5487033h-6.466291l2.0078971-3.515467zm-5.3345845 8.73906c.3904252.2420736.7427588.4827752 1.0570008.7221046.3142419.2393294.6749151.5393711 1.0820193.9001249l-3.0452936 1.7745421c-.4088409-.3223038-.7891895-.5978781-1.1410458-.826723s-.7278944-.454119-1.1281144-.6758223zm-.9761441-21.97272852 3.0303684 1.78312125c-.9383692.74232911-1.6188266 1.25499334-2.0413723 1.5379927-1.7488723 1.17130456-3.4654051 2.11042278-5.0402606 2.96045551-.5369253.28980694-2.1510925 1.40598716-3.620044 2.70604466-.97930096.866705-1.51846219 2.1042787-1.61748365 3.7127211-.03280824 1.3217496.50635299 2.5395921 1.61748365 3.6535273 1.1111307 1.1139353 2.4433101 2.0840644 3.9965381 2.9103876l-3.153308 1.9195347c-1.9051489-1.2804304-3.29769343-2.607579-4.17763353-3.9814458s-1.29856767-2.8745347-1.25588272-4.5020038c0-2.4042172.92139182-4.5530879 2.76417548-6.44661192 1.22886287-1.26269914 3.16601267-2.4602627 5.68407707-3.92497253.7436351-.43255833 2.0147492-1.20880859 3.8133421-2.32875077zm.8830793 4.19564308c1.5309982.9150526 2.7785608 2.04035691 3.7426877 3.37591294.9641269 1.335556 1.4895197 2.6377515 1.5761785 3.9065864h-3.0066761c-.3351857-1.0343331-.9351547-1.9678308-1.7999069-2.8004933-.8647521-.8326624-2.1006881-1.7046032-3.7078078-2.61582235zm-6.673746-4.07807778c.3034926.23598639.631167.46840203.9830233.6972469s.7278944.45411899 1.1281144.67582234l-3.1754337 1.89422628c-.3904253-.24207365-.7427589-.48277518-1.0570008-.7221046-.314242-.23932942-.614759-.49584466-.90155114-.76954572z" fill="#fff"/></g></g></svg>